<svg xmlns="http://www.w3.org/2000/svg" width="811" height="316" viewBox="0 0 811 316" version="1.1"><path d="M 155.985 82.750 C 155.969 119.178, 155.813 120.363, 150.688 122.820 C 147.377 124.408, 127.774 124.650, 123.873 123.152 C 120.579 121.887, 119 117.576, 119 109.851 L 119 104 105.500 104 L 92 104 92 112.851 C 92 134.565, 99.929 140.135, 133 141.651 C 162.757 143.016, 178.864 137.444, 183.100 124.321 C 183.948 121.695, 184.462 109.316, 184.744 84.750 L 185.155 49 170.577 49 L 156 49 155.985 82.750 M 353 95 L 353 141 367 141 L 381 141 381 105.326 L 381 69.652 404.867 105.076 L 428.735 140.500 451.867 140.768 L 475 141.037 475 95.018 L 475 49 461 49 L 447 49 447 84.559 C 447 104.116, 446.663 119.904, 446.250 119.643 C 445.837 119.381, 435.150 103.387, 422.500 84.101 L 399.500 49.035 376.250 49.018 L 353 49 353 95 M 491 95 L 491 141 505 141 L 519 141 519.002 105.250 L 519.003 69.500 542.752 105.223 L 566.500 140.946 589.750 140.973 L 613 141 613 95 L 613 49 598.513 49 L 584.026 49 583.763 84.174 L 583.500 119.348 560.298 84.174 L 537.097 49 514.048 49 L 491 49 491 95 M 627 49.458 C 627 49.710, 638.018 62.423, 651.485 77.708 L 675.971 105.500 675.985 123.250 L 676 141 690.500 141 L 705 141 705 123.420 L 705 105.840 728.672 79.670 C 741.692 65.277, 753.246 52.487, 754.347 51.250 L 756.349 49 739.778 49 L 723.207 49 707.436 67.528 C 698.762 77.718, 691.312 85.930, 690.880 85.778 C 690.449 85.625, 683.084 77.287, 674.514 67.250 L 658.933 49 642.967 49 C 634.185 49, 627 49.206, 627 49.458 M 253 62.881 C 227.852 68.397, 208.537 83.544, 202.873 102.192 C 199.757 112.452, 200.465 124.123, 204.762 133.305 C 212.346 149.513, 231.111 162.803, 253.155 167.579 C 262.598 169.625, 281.262 169.673, 290.635 167.676 C 318.349 161.770, 339.975 142.605, 342.749 121.493 C 344.371 109.148, 341.182 97.512, 333.504 87.758 C 324.813 76.718, 310.947 68.028, 295.442 63.904 C 283.990 60.857, 264.380 60.385, 253 62.881 M 263.500 81.058 C 229.299 86.081, 214.907 117.068, 237.222 137.637 C 259.243 157.935, 302.034 152.031, 315.097 126.892 C 318.201 120.917, 318.273 110.473, 315.256 103.765 C 308.197 88.072, 285.009 77.898, 263.500 81.058 M 258.347 84.985 C 249.301 87.357, 244.756 89.687, 238.606 95.109 C 232.941 100.103, 229.004 107.683, 229.054 113.500 L 229.088 117.500 230.468 113.627 C 234.873 101.269, 250.969 91.526, 269 90.302 C 287.177 89.069, 305.869 98.069, 312.416 111.207 L 315 116.393 314.990 112.946 C 314.967 104.920, 306.607 93.918, 296.669 88.836 C 290.853 85.862, 278.409 82.993, 271.590 83.055 C 268.241 83.085, 262.281 83.954, 258.347 84.985 M 259.251 93.545 C 244.351 97.557, 232.875 109.162, 233.089 120 L 233.158 123.500 234.617 119.385 C 239.557 105.456, 260.091 95.959, 278.949 98.881 C 294.461 101.285, 305.731 109.003, 309.620 119.885 L 310.912 123.500 310.946 120 C 311.023 112.112, 303.470 101.831, 294.076 97.039 C 284.458 92.132, 269.916 90.673, 259.251 93.545 M 209.861 111 L 207.500 113 209.861 115 C 212.512 117.246, 214.240 117.477, 217.066 115.965 C 220.817 113.957, 218.405 109, 213.677 109 C 212.876 109, 211.159 109.900, 209.861 111 M 326.750 110.080 C 324.422 111.436, 324.524 114.675, 326.934 115.965 C 329.760 117.477, 331.488 117.246, 334.139 115 L 336.500 113 334.139 111 C 331.538 108.796, 329.409 108.531, 326.750 110.080 M 258.500 137.408 C 257.950 137.612, 254.817 138.332, 251.538 139.009 L 245.575 140.239 249.243 142.120 C 261.751 148.537, 282.216 148.554, 294.683 142.158 L 298.278 140.314 293.889 139.069 C 289.848 137.922, 260.791 136.558, 258.500 137.408 M 213.802 159.781 C 204.388 169.844, 200.501 180.276, 201.200 193.597 C 201.573 200.687, 202.186 202.992, 205.471 209.638 C 216.753 232.467, 246.215 246.717, 277.857 244.651 C 290.699 243.812, 298.742 241.678, 310.630 235.957 C 335.434 224.019, 347.572 201.795, 341.513 179.410 C 339.603 172.354, 334.209 163.345, 328.859 158.275 L 325.456 155.050 320.978 158.051 C 318.515 159.701, 313.920 162.223, 310.767 163.655 L 305.035 166.258 309.847 171.523 C 330.663 194.299, 308.819 225.387, 272 225.387 C 235.203 225.387, 213.337 194.299, 234.131 171.547 L 238.922 166.305 233.711 163.939 C 230.845 162.637, 226.700 160.395, 224.500 158.956 C 222.300 157.518, 219.992 156.046, 219.372 155.686 C 218.747 155.324, 216.260 157.152, 213.802 159.781 M 156 200.444 C 156 234.726, 155.989 234.901, 153.750 237.491 C 150.943 240.738, 141.935 242.276, 131.183 241.345 C 120.761 240.443, 119.618 239.280, 119.156 229.098 L 118.788 221 105.281 221 L 91.773 221 92.153 231.264 C 92.485 240.238, 92.875 242.111, 95.252 246.168 C 98.377 251.500, 102.897 254.106, 113 256.399 C 127.913 259.785, 154.914 259.307, 168 255.426 C 174.492 253.501, 180.761 247.640, 182.915 241.482 C 183.970 238.467, 184.413 228.815, 184.741 201.750 L 185.173 166 170.587 166 L 156 166 156 200.444 M 353 212 L 353 258 366.500 258 L 380 258 380 212 L 380 166 366.500 166 L 353 166 353 212 M 401 212 L 401 258 414.487 258 L 427.975 258 428.237 222.349 L 428.500 186.698 452.462 222.349 L 476.425 258 499.212 258 L 522 258 522 212 L 522 166 508.013 166 L 494.025 166 493.763 201.721 L 493.500 237.443 470 201.740 L 446.500 166.036 423.750 166.018 L 401 166 401 212 M 538 176 L 538 186 558 186 L 578 186 578 222 L 578 258 592.500 258 L 607 258 607 222 L 607 186 627.500 186 L 648 186 648 176 L 648 166 593 166 L 538 166 538 176 M 237.534 171.750 C 232.916 176.309, 229.007 184.259, 229.054 189 L 229.088 192.500 230.400 188.825 C 232.384 183.271, 237.530 177.393, 243.575 173.777 C 246.559 171.993, 249 170.240, 249 169.883 C 249 169.157, 245.349 168.035, 242.917 168.014 C 242.046 168.006, 239.624 169.688, 237.534 171.750 M 296.750 168.689 C 293.981 169.413, 294.629 170.311, 300.416 173.772 C 306.558 177.446, 310.479 181.679, 313.133 187.500 C 314.939 191.463, 314.956 191.472, 314.968 188.500 C 314.986 184.138, 310.826 175.899, 306.471 171.669 C 302.901 168.201, 300.929 167.597, 296.750 168.689 M 261.230 173.486 C 252.115 176.052, 245.272 180.640, 242.464 186.069 C 239.800 191.222, 240.841 192.519, 244.067 188.066 C 249.374 180.740, 264.994 175.124, 276 176.586 C 287.360 178.094, 296.508 182.662, 300.737 188.937 C 303.314 192.762, 303.915 190.669, 301.551 186.099 C 296.164 175.682, 275.923 169.350, 261.230 173.486 M 209.571 186.571 C 207.465 188.678, 207.588 189.598, 210.223 191.443 C 213.240 193.557, 215.601 193.399, 218.081 190.919 C 220.064 188.936, 220.080 188.746, 218.426 186.919 C 216.325 184.597, 211.726 184.417, 209.571 186.571 M 325.574 186.919 C 323.920 188.746, 323.936 188.936, 325.919 190.919 C 328.399 193.399, 330.760 193.557, 333.777 191.443 C 336.412 189.598, 336.535 188.678, 334.429 186.571 C 332.274 184.417, 327.675 184.597, 325.574 186.919" stroke="none" fill="#062c48" fill-rule="evenodd"/><path d="M 0 158.001 L 0 316.002 405.750 315.751 L 811.500 315.500 811.753 157.750 L 812.006 0 406.003 0 L 0 0 0 158.001 M 0.488 158.500 C 0.488 245.400, 0.606 280.802, 0.750 237.171 C 0.894 193.540, 0.894 122.440, 0.750 79.171 C 0.606 35.902, 0.488 71.600, 0.488 158.500 M 155.985 82.750 C 155.969 119.178, 155.813 120.363, 150.688 122.820 C 147.377 124.408, 127.774 124.650, 123.873 123.152 C 120.579 121.887, 119 117.576, 119 109.851 L 119 104 105.500 104 L 92 104 92 112.851 C 92 134.565, 99.929 140.135, 133 141.651 C 162.757 143.016, 178.864 137.444, 183.100 124.321 C 183.948 121.695, 184.462 109.316, 184.744 84.750 L 185.155 49 170.577 49 L 156 49 155.985 82.750 M 353 95 L 353 141 367 141 L 381 141 381 105.326 L 381 69.652 404.867 105.076 L 428.735 140.500 451.867 140.768 L 475 141.037 475 95.018 L 475 49 461 49 L 447 49 447 84.559 C 447 104.116, 446.663 119.904, 446.250 119.643 C 445.837 119.381, 435.150 103.387, 422.500 84.101 L 399.500 49.035 376.250 49.018 L 353 49 353 95 M 491 95 L 491 141 505 141 L 519 141 519.002 105.250 L 519.003 69.500 542.752 105.223 L 566.500 140.946 589.750 140.973 L 613 141 613 95 L 613 49 598.513 49 L 584.026 49 583.763 84.174 L 583.500 119.348 560.298 84.174 L 537.097 49 514.048 49 L 491 49 491 95 M 627 49.458 C 627 49.710, 638.018 62.423, 651.485 77.708 L 675.971 105.500 675.985 123.250 L 676 141 690.500 141 L 705 141 705 123.420 L 705 105.840 728.672 79.670 C 741.692 65.277, 753.246 52.487, 754.347 51.250 L 756.349 49 739.778 49 L 723.207 49 707.436 67.528 C 698.762 77.718, 691.312 85.930, 690.880 85.778 C 690.449 85.625, 683.084 77.287, 674.514 67.250 L 658.933 49 642.967 49 C 634.185 49, 627 49.206, 627 49.458 M 253 62.881 C 227.852 68.397, 208.537 83.544, 202.873 102.192 C 199.757 112.452, 200.465 124.123, 204.762 133.305 C 212.346 149.513, 231.111 162.803, 253.155 167.579 C 262.598 169.625, 281.262 169.673, 290.635 167.676 C 318.349 161.770, 339.975 142.605, 342.749 121.493 C 344.371 109.148, 341.182 97.512, 333.504 87.758 C 324.813 76.718, 310.947 68.028, 295.442 63.904 C 283.990 60.857, 264.380 60.385, 253 62.881 M 263.500 81.058 C 229.299 86.081, 214.907 117.068, 237.222 137.637 C 259.243 157.935, 302.034 152.031, 315.097 126.892 C 318.201 120.917, 318.273 110.473, 315.256 103.765 C 308.197 88.072, 285.009 77.898, 263.500 81.058 M 258.347 84.985 C 249.301 87.357, 244.756 89.687, 238.606 95.109 C 232.941 100.103, 229.004 107.683, 229.054 113.500 L 229.088 117.500 230.468 113.627 C 234.873 101.269, 250.969 91.526, 269 90.302 C 287.177 89.069, 305.869 98.069, 312.416 111.207 L 315 116.393 314.990 112.946 C 314.967 104.920, 306.607 93.918, 296.669 88.836 C 290.853 85.862, 278.409 82.993, 271.590 83.055 C 268.241 83.085, 262.281 83.954, 258.347 84.985 M 259.251 93.545 C 244.351 97.557, 232.875 109.162, 233.089 120 L 233.158 123.500 234.617 119.385 C 239.557 105.456, 260.091 95.959, 278.949 98.881 C 294.461 101.285, 305.731 109.003, 309.620 119.885 L 310.912 123.500 310.946 120 C 311.023 112.112, 303.470 101.831, 294.076 97.039 C 284.458 92.132, 269.916 90.673, 259.251 93.545 M 209.861 111 L 207.500 113 209.861 115 C 212.512 117.246, 214.240 117.477, 217.066 115.965 C 220.817 113.957, 218.405 109, 213.677 109 C 212.876 109, 211.159 109.900, 209.861 111 M 326.750 110.080 C 324.422 111.436, 324.524 114.675, 326.934 115.965 C 329.760 117.477, 331.488 117.246, 334.139 115 L 336.500 113 334.139 111 C 331.538 108.796, 329.409 108.531, 326.750 110.080 M 258.500 137.408 C 257.950 137.612, 254.817 138.332, 251.538 139.009 L 245.575 140.239 249.243 142.120 C 261.751 148.537, 282.216 148.554, 294.683 142.158 L 298.278 140.314 293.889 139.069 C 289.848 137.922, 260.791 136.558, 258.500 137.408 M 213.802 159.781 C 204.388 169.844, 200.501 180.276, 201.200 193.597 C 201.573 200.687, 202.186 202.992, 205.471 209.638 C 216.753 232.467, 246.215 246.717, 277.857 244.651 C 290.699 243.812, 298.742 241.678, 310.630 235.957 C 335.434 224.019, 347.572 201.795, 341.513 179.410 C 339.603 172.354, 334.209 163.345, 328.859 158.275 L 325.456 155.050 320.978 158.051 C 318.515 159.701, 313.920 162.223, 310.767 163.655 L 305.035 166.258 309.847 171.523 C 330.663 194.299, 308.819 225.387, 272 225.387 C 235.203 225.387, 213.337 194.299, 234.131 171.547 L 238.922 166.305 233.711 163.939 C 230.845 162.637, 226.700 160.395, 224.500 158.956 C 222.300 157.518, 219.992 156.046, 219.372 155.686 C 218.747 155.324, 216.260 157.152, 213.802 159.781 M 156 200.444 C 156 234.726, 155.989 234.901, 153.750 237.491 C 150.943 240.738, 141.935 242.276, 131.183 241.345 C 120.761 240.443, 119.618 239.280, 119.156 229.098 L 118.788 221 105.281 221 L 91.773 221 92.153 231.264 C 92.485 240.238, 92.875 242.111, 95.252 246.168 C 98.377 251.500, 102.897 254.106, 113 256.399 C 127.913 259.785, 154.914 259.307, 168 255.426 C 174.492 253.501, 180.761 247.640, 182.915 241.482 C 183.970 238.467, 184.413 228.815, 184.741 201.750 L 185.173 166 170.587 166 L 156 166 156 200.444 M 353 212 L 353 258 366.500 258 L 380 258 380 212 L 380 166 366.500 166 L 353 166 353 212 M 401 212 L 401 258 414.487 258 L 427.975 258 428.237 222.349 L 428.500 186.698 452.462 222.349 L 476.425 258 499.212 258 L 522 258 522 212 L 522 166 508.013 166 L 494.025 166 493.763 201.721 L 493.500 237.443 470 201.740 L 446.500 166.036 423.750 166.018 L 401 166 401 212 M 538 176 L 538 186 558 186 L 578 186 578 222 L 578 258 592.500 258 L 607 258 607 222 L 607 186 627.500 186 L 648 186 648 176 L 648 166 593 166 L 538 166 538 176 M 237.534 171.750 C 232.916 176.309, 229.007 184.259, 229.054 189 L 229.088 192.500 230.400 188.825 C 232.384 183.271, 237.530 177.393, 243.575 173.777 C 246.559 171.993, 249 170.240, 249 169.883 C 249 169.157, 245.349 168.035, 242.917 168.014 C 242.046 168.006, 239.624 169.688, 237.534 171.750 M 296.750 168.689 C 293.981 169.413, 294.629 170.311, 300.416 173.772 C 306.558 177.446, 310.479 181.679, 313.133 187.500 C 314.939 191.463, 314.956 191.472, 314.968 188.500 C 314.986 184.138, 310.826 175.899, 306.471 171.669 C 302.901 168.201, 300.929 167.597, 296.750 168.689 M 261.230 173.486 C 252.115 176.052, 245.272 180.640, 242.464 186.069 C 239.800 191.222, 240.841 192.519, 244.067 188.066 C 249.374 180.740, 264.994 175.124, 276 176.586 C 287.360 178.094, 296.508 182.662, 300.737 188.937 C 303.314 192.762, 303.915 190.669, 301.551 186.099 C 296.164 175.682, 275.923 169.350, 261.230 173.486 M 209.571 186.571 C 207.465 188.678, 207.588 189.598, 210.223 191.443 C 213.240 193.557, 215.601 193.399, 218.081 190.919 C 220.064 188.936, 220.080 188.746, 218.426 186.919 C 216.325 184.597, 211.726 184.417, 209.571 186.571 M 325.574 186.919 C 323.920 188.746, 323.936 188.936, 325.919 190.919 C 328.399 193.399, 330.760 193.557, 333.777 191.443 C 336.412 189.598, 336.535 188.678, 334.429 186.571 C 332.274 184.417, 327.675 184.597, 325.574 186.919" stroke="none" fill="#fbfbfb" fill-rule="evenodd"/></svg>