<?xml version="1.0" standalone="no"?>
<!DOCTYPE svg PUBLIC "-//W3C//DTD SVG 20010904//EN"
 "http://www.w3.org/TR/2001/REC-SVG-20010904/DTD/svg10.dtd">
<svg version="1.0" xmlns="http://www.w3.org/2000/svg"
 width="811.000000pt" height="316.000000pt" viewBox="0 0 811.000000 316.000000"
 preserveAspectRatio="xMidYMid meet">
<metadata>
Created by potrace 1.10, written by Peter Selinger 2001-2011
</metadata>
<g transform="translate(0.000000,316.000000) scale(0.100000,-0.100000)"
fill="#000000" stroke="none">
<path d="M868 2695 c-2 -138 -7 -198 -16 -207 -6 -6 -41 -14 -77 -16 -89 -6
-115 11 -115 73 l0 45 -75 0 -75 0 0 -55 c0 -71 21 -112 67 -132 85 -35 313
-34 382 2 56 28 61 52 61 280 l0 205 -74 0 -74 0 -4 -195z"/>
<path d="M1960 2635 l0 -255 75 0 75 0 2 198 3 197 133 -197 133 -198 129 0
130 0 0 255 0 255 -80 0 -80 0 -2 -197 -3 -196 -130 196 -130 197 -127 0 -128
0 0 -255z"/>
<path d="M2730 2635 l0 -255 75 0 75 0 0 198 0 197 132 -197 131 -198 129 0
128 0 0 255 0 255 -80 0 -80 0 0 -197 0 -198 -130 198 -130 197 -125 0 -125 0
0 -255z"/>
<path d="M3485 2881 c3 -5 64 -76 135 -157 l130 -148 0 -98 0 -98 80 0 80 0 0
98 1 97 139 150 c76 83 139 153 139 158 1 4 -39 7 -87 7 l-89 0 -69 -81 c-38
-45 -78 -93 -89 -106 l-21 -25 -88 106 -89 106 -89 0 c-53 0 -87 -4 -83 -9z"/>
<path d="M1380 2806 c-123 -35 -226 -122 -254 -217 -20 -65 -20 -73 -1 -136
21 -70 87 -141 167 -181 214 -105 493 -37 585 142 80 157 -30 336 -242 392
-62 17 -195 16 -255 0z m230 -108 c84 -26 141 -86 148 -159 6 -63 -10 -101
-61 -145 -98 -83 -272 -85 -370 -3 -48 40 -69 80 -69 137 0 134 181 221 352
170z m-401 -174 c-15 -19 -38 -18 -46 2 -8 21 16 35 40 23 14 -8 16 -13 6 -25z
m651 11 c0 -16 -25 -26 -45 -19 -20 8 -19 21 2 32 20 12 43 5 43 -13z"/>
<path d="M1415 2682 c-84 -29 -131 -74 -140 -134 -3 -18 -2 -26 1 -18 18 40
50 73 97 98 45 23 64 27 137 27 77 0 90 -3 140 -31 36 -20 63 -45 77 -70 15
-26 23 -33 23 -20 0 30 -39 90 -75 114 -74 51 -173 64 -260 34z"/>
<path d="M1414 2632 c-69 -28 -103 -64 -119 -122 -6 -21 -4 -20 14 7 46 73
158 114 253 94 60 -13 109 -41 137 -79 18 -23 20 -24 21 -8 0 32 -81 101 -133
114 -63 16 -124 14 -173 -6z"/>
<path d="M1408 2393 c-16 -2 -28 -8 -28 -12 0 -13 75 -31 130 -31 54 0 130 18
130 30 0 17 -153 25 -232 13z"/>
<path d="M1179 2262 c-43 -49 -59 -91 -59 -156 0 -93 39 -162 124 -221 146
-100 390 -101 528 -3 89 64 128 131 128 220 0 60 -33 140 -71 174 l-24 22 -53
-30 -52 -30 25 -29 c74 -89 40 -208 -80 -272 -58 -32 -212 -32 -270 0 -124 67
-157 180 -80 272 l25 29 -55 30 -55 30 -31 -36z m30 -131 c19 -12 6 -41 -17
-41 -27 0 -45 23 -30 38 14 14 28 15 47 3z m646 -16 c0 -13 -8 -21 -23 -23
-26 -4 -42 25 -21 39 22 14 44 6 44 -16z"/>
<path d="M870 2052 c0 -230 2 -225 -102 -230 -40 -1 -80 2 -87 7 -8 5 -17 31
-20 58 l-6 48 -70 0 -70 0 1 -64 c1 -59 4 -67 32 -92 38 -34 106 -49 226 -49
108 0 182 19 217 56 24 25 24 28 27 240 l3 214 -75 0 -76 0 0 -188z"/>
<path d="M1960 1985 l0 -255 75 0 75 0 0 255 0 255 -75 0 -75 0 0 -255z"/>
<path d="M2230 1985 l0 -255 70 0 70 0 2 202 3 201 135 -201 135 -201 128 -1
127 0 0 255 0 255 -80 0 -80 0 -2 -197 -3 -197 -130 197 -130 197 -122 0 -123
0 0 -255z"/>
<path d="M2990 2185 l0 -55 110 0 110 0 0 -200 0 -200 80 0 80 0 0 200 0 200
110 0 110 0 0 55 0 55 -300 0 -300 0 0 -55z"/>
<path d="M1311 2195 c-17 -20 -31 -40 -31 -45 0 -4 -3 -17 -6 -27 -4 -10 4 -2
17 17 14 19 39 44 57 56 25 17 28 23 16 28 -22 8 -18 10 -53 -29z"/>
<path d="M1645 2221 c-3 -5 4 -12 15 -16 11 -3 36 -25 55 -48 34 -39 36 -40
25 -12 -21 56 -78 102 -95 76z"/>
<path d="M1460 2199 c-50 -10 -85 -32 -108 -69 -16 -25 -16 -25 14 2 39 36 78
50 144 49 67 0 105 -13 144 -49 25 -23 27 -24 17 -5 -17 33 -59 62 -100 69
-20 3 -43 7 -51 9 -8 1 -35 -1 -60 -6z"/>
</g>
</svg>
